<?xml version="1.0" encoding="UTF-8" standalone="no"?>
<svg id="pact-icon" xmlns="http://www.w3.org/2000/svg" viewBox="0 0 200.000000 200.000000" preserveAspectRatio="xMidYMid meet">
    <g transform="translate(0.000000,200.000000) scale(0.100000,-0.100000)" fill="white" stroke="none" fill-rule="nonzero">
        <path fill-rule="nonzero" d="M349 1766 c-121 -35 -243 -130 -293 -229 -103 -204 -65 -426 99 -575 71 -65 501 -321 590 -351 119 -40 263 -19 393 58 l53 31 24 -27 24 -28 1 163 0 162 -150 0 c-82 0 -150 -4 -150 -9 0 -5 7 -14 15 -21 23 -19 18 -30 -22 -47 -72 -29 -102 -18 -363 142 -214 131 -243 152 -261 188 -30 58 -28 125 5 182 34 57 86 85 157 85 46 0 64 -7 147 -57 78 -47 97 -55 110 -45 80 57 145 84 281 119 l34 8 -170 103 c-219 133 -271 154 -388 158 -55 2 -108 -2 -136 -10z"/>
        <path fill-rule="nonzero" d="M960 1386 c-52 -15 -127 -51 -152 -74 -16 -13 -20 -13 -35 0 -43 37 -43 37 -43 -131 l0 -161 155 0 c85 0 155 3 155 7 0 4 -10 17 -22 31 -23 23 -23 24 -3 39 15 10 38 13 85 10 63 -4 72 -8 265 -126 295 -181 302 -186 325 -231 62 -121 -26 -263 -164 -265 -45 0 -63 7 -156 64 -58 35 -109 64 -115 64 -5 0 -31 -14 -57 -32 -55 -37 -155 -76 -221 -86 -26 -4 -47 -10 -47 -14 0 -11 354 -221 420 -248 85 -36 214 -43 307 -18 257 70 405 361 311 613 -34 91 -77 150 -157 213 -72 56 -476 299 -545 328 -73 30 -231 39 -306 17z"/>
    </g>
</svg>
